<?xml version="1.0" encoding="UTF-8" standalone="no"?>
<svg
   xmlns:dc="http://purl.org/dc/elements/1.1/"
   xmlns:cc="http://creativecommons.org/ns#"
   xmlns:rdf="http://www.w3.org/1999/02/22-rdf-syntax-ns#"
   xmlns:svg="http://www.w3.org/2000/svg"
   xmlns="http://www.w3.org/2000/svg"
   xmlns:sodipodi="http://sodipodi.sourceforge.net/DTD/sodipodi-0.dtd"
   xmlns:inkscape="http://www.inkscape.org/namespaces/inkscape"
   width="345.26263mm"
   height="150.02972mm"
   viewBox="0 0 345.26263 150.02972"
   version="1.1"
   id="svg2334"
   inkscape:version="1.0.2 (e86c8708, 2021-01-15)"
   sodipodi:docname="shark.svg">
  <defs
     id="defs2328" />
  <sodipodi:namedview
     id="base"
     pagecolor="#ffffff"
     bordercolor="#666666"
     borderopacity="1.0"
     inkscape:pageopacity="0.0"
     inkscape:pageshadow="2"
     inkscape:zoom="0.54293911"
     inkscape:cx="702.24343"
     inkscape:cy="453.45536"
     inkscape:document-units="mm"
     inkscape:current-layer="layer1"
     inkscape:document-rotation="0"
     showgrid="false"
     inkscape:pagecheckerboard="true"
     fit-margin-top="0"
     fit-margin-left="0"
     fit-margin-right="0"
     fit-margin-bottom="0"
     inkscape:window-width="1792"
     inkscape:window-height="1075"
     inkscape:window-x="128"
     inkscape:window-y="1103"
     inkscape:window-maximized="1" />
  <metadata
     id="metadata2331">
    <rdf:RDF>
      <cc:Work
         rdf:about="">
        <dc:format>image/svg+xml</dc:format>
        <dc:type
           rdf:resource="http://purl.org/dc/dcmitype/StillImage" />
        <dc:title></dc:title>
      </cc:Work>
    </rdf:RDF>
  </metadata>
  <g
     inkscape:label="Layer 1"
     inkscape:groupmode="layer"
     id="layer1"
     transform="translate(77.797338,-44.979842)">
    <g
       id="g2929"
       transform="translate(-24.483567,32.984543)"
       style="stroke:#ffffff;stroke-opacity:1;fill:#fffff7;fill-opacity:1">
      <path
         style="fill-opacity:1;stroke-width:0.352778;stroke:#ffffff;stroke-opacity:1;fill:#fffff7"
         d="m 56.953808,145.58383 c -0.43881,-0.55953 -0.426332,-0.57201 0.133194,-0.1332 0.58764,0.46086 0.774517,0.75056 0.484167,0.75056 -0.07325,0 -0.351067,-0.27781 -0.617361,-0.61736 z m -1.763889,-1.76389 c -0.43881,-0.55953 -0.426332,-0.57201 0.133194,-0.1332 0.339549,0.2663 0.617362,0.54411 0.617362,0.61737 0,0.29035 -0.289698,0.10347 -0.750556,-0.48417 z M 94.834225,131.8469 c 0.339549,-0.0887 0.895174,-0.0887 1.234723,0 0.339548,0.0887 0.06174,0.16133 -0.617361,0.16133 -0.679098,0 -0.95691,-0.0726 -0.617362,-0.16133 z m 16.426215,-0.35059 c 0.25466,-0.1019 0.55894,-0.0894 0.67616,0.0278 0.11722,0.11722 -0.0911,0.2006 -0.46302,0.18528 -0.41097,-0.0169 -0.49456,-0.10052 -0.21314,-0.21313 z m -28.420659,-5.30335 c 0.533576,-0.0808 1.406701,-0.0808 1.940278,0 0.533576,0.0808 0.09701,0.14696 -0.970139,0.14696 -1.067153,0 -1.503716,-0.0661 -0.970139,-0.14696 z m 23.642829,-0.34458 c 0.34324,-0.0894 0.81949,-0.0836 1.05833,0.0131 0.23884,0.0966 -0.042,0.16982 -0.62408,0.16263 -0.58208,-0.007 -0.7775,-0.0863 -0.43425,-0.1757 z m 11.83339,-0.34929 c 0.25466,-0.10191 0.55893,-0.0894 0.67616,0.0278 0.11722,0.11722 -0.0911,0.2006 -0.46303,0.18528 -0.41096,-0.0169 -0.49455,-0.10052 -0.21313,-0.21313 z M 286.23822,44.007423 c 0.25466,-0.101907 0.55894,-0.08937 0.67616,0.02785 0.11723,0.117225 -0.0911,0.200604 -0.46302,0.185286 -0.41097,-0.01693 -0.49456,-0.100521 -0.21314,-0.213137 z"
         id="path2945" />
      <path
         style="fill-opacity:1;stroke-width:0.352778;stroke:#ffffff;stroke-opacity:1;fill:#fffff7"
         d="m 93.246725,131.85644 c 0.242535,-0.0979 0.63941,-0.0979 0.881945,0 0.242535,0.0979 0.0441,0.17794 -0.440972,0.17794 -0.48507,0 -0.683507,-0.0801 -0.440973,-0.17794 z m 16.955385,-0.36013 c 0.25466,-0.1019 0.55893,-0.0894 0.67616,0.0278 0.11722,0.11722 -0.0911,0.2006 -0.46302,0.18528 -0.41097,-0.0169 -0.49456,-0.10052 -0.21314,-0.21313 z m -24.180616,-5.29515 c 0.343242,-0.0894 0.819492,-0.0836 1.058334,0.0131 0.238841,0.0966 -0.04199,0.16982 -0.624075,0.16263 -0.582083,-0.007 -0.777501,-0.0863 -0.434259,-0.1757 z m 22.063946,-0.34929 c 0.25466,-0.10191 0.55894,-0.0894 0.67616,0.0278 0.11722,0.11723 -0.0911,0.20061 -0.46302,0.18529 -0.41097,-0.0169 -0.49456,-0.10052 -0.21314,-0.21313 z"
         id="path2943" />
      <path
         style="fill-opacity:1;stroke-width:0.352778;stroke:#ffffff;stroke-opacity:1;fill:#fffff7"
         d="m 92.210441,131.84909 c 0.254659,-0.10191 0.558934,-0.0894 0.676158,0.0278 0.117225,0.11722 -0.09114,0.2006 -0.463021,0.18528 -0.410968,-0.0169 -0.494559,-0.10052 -0.213137,-0.21313 z m 16.933329,-0.35278 c 0.25466,-0.1019 0.55894,-0.0894 0.67616,0.0278 0.11723,0.11722 -0.0911,0.2006 -0.46302,0.18528 -0.41097,-0.0169 -0.49456,-0.10052 -0.21314,-0.21313 z m -21.3651,-5.29386 c 0.339548,-0.0887 0.895173,-0.0887 1.234722,0 0.339549,0.0887 0.06174,0.16134 -0.617361,0.16134 -0.679097,0 -0.95691,-0.0726 -0.617361,-0.16134 z m 21.3651,-0.35058 c 0.25466,-0.10191 0.55894,-0.0894 0.67616,0.0278 0.11723,0.11723 -0.0911,0.20061 -0.46302,0.18529 -0.41097,-0.0169 -0.49456,-0.10052 -0.21314,-0.21313 z"
         id="path2941" />
      <path
         style="fill-opacity:1;stroke-width:0.352778;stroke:#ffffff;stroke-opacity:1;fill:#fffff7"
         d="m 108.08544,131.49631 c 0.25466,-0.1019 0.55894,-0.0894 0.67616,0.0278 0.11722,0.11722 -0.0911,0.2006 -0.46302,0.18528 -0.41097,-0.0169 -0.49456,-0.10052 -0.21314,-0.21313 z m -18.18339,-5.29515 c 0.343242,-0.0894 0.819492,-0.0836 1.058333,0.0131 0.238841,0.0966 -0.04199,0.16982 -0.624074,0.16263 -0.582084,-0.007 -0.777501,-0.0863 -0.434259,-0.1757 z m 20.30006,-0.34929 c 0.25466,-0.10191 0.55893,-0.0894 0.67616,0.0278 0.11722,0.11723 -0.0911,0.20061 -0.46302,0.18529 -0.41097,-0.0169 -0.49456,-0.10052 -0.21314,-0.21313 z M -4.6685305,82.877578 c 0.0072,-0.582084 0.086254,-0.777502 0.1756974,-0.434259 0.089443,0.343242 0.083563,0.819492 -0.013088,1.058333 -0.096636,0.238841 -0.1698167,-0.04199 -0.1626271,-0.624074 z"
         id="path2939" />
      <path
         style="fill-opacity:1;stroke-width:0.352778;stroke:#ffffff;stroke-opacity:1;fill:#fffff7"
         d="m 90.446552,131.84909 c 0.254659,-0.10191 0.558934,-0.0894 0.676158,0.0278 0.117225,0.11722 -0.09114,0.2006 -0.463021,0.18528 -0.410968,-0.0169 -0.494559,-0.10052 -0.213137,-0.21313 z m 15.676558,-0.35497 c 0.33955,-0.0887 0.89518,-0.0887 1.23473,0 0.33955,0.0887 0.0617,0.16134 -0.61736,0.16134 -0.6791,0 -0.95691,-0.0726 -0.61737,-0.16134 z m -14.106256,-5.30163 c 0.536243,-0.0811 1.329993,-0.0789 1.763889,0.005 0.433895,0.0837 -0.0049,0.15008 -0.97499,0.14744 -0.970139,-0.003 -1.325143,-0.0712 -0.788899,-0.15225 z m 19.221536,-0.33327 c 0.24254,-0.0979 0.63941,-0.0979 0.88195,0 0.24253,0.0979 0.0441,0.17794 -0.44098,0.17794 -0.48506,0 -0.6835,-0.0801 -0.44097,-0.17794 z M 5.0743276,101.5102 c 0.2546597,-0.1019 0.5589305,-0.0894 0.6761586,0.0278 0.1172245,0.11722 -0.091137,0.2006 -0.4630209,0.18528 -0.4109684,-0.0169 -0.4945591,-0.10052 -0.2131377,-0.21313 z m 3.5277779,0 c 0.2546597,-0.1019 0.5589305,-0.0894 0.6761585,0.0278 0.1172246,0.11722 -0.091137,0.2006 -0.4630208,0.18528 -0.4109685,-0.0169 -0.4945592,-0.10052 -0.2131377,-0.21313 z M -46.057304,89.844939 c -0.43881,-0.559527 -0.426332,-0.572005 0.133193,-0.133195 0.339549,0.266294 0.617361,0.544107 0.617361,0.617361 0,0.29035 -0.289696,0.103473 -0.750554,-0.484166 z M 283.416,49.651869 c 0.25466,-0.101907 0.55893,-0.08938 0.67616,0.02783 0.11722,0.117228 -0.0911,0.200604 -0.46302,0.185286 -0.41097,-0.01693 -0.49456,-0.10052 -0.21314,-0.213134 z"
         id="path2937" />
      <path
         style="fill-opacity:1;stroke-width:0.352778;stroke:#ffffff;stroke-opacity:1;fill:#fffff7"
         d="m 104.53561,131.50366 c 0.24254,-0.0979 0.63941,-0.0979 0.88195,0 0.24253,0.0979 0.0441,0.17794 -0.44097,0.17794 -0.48507,0 -0.68351,-0.0801 -0.44098,-0.17794 z m -9.701385,-5.30121 c 0.339549,-0.0887 0.895174,-0.0887 1.234723,0 0.339548,0.0887 0.06174,0.16134 -0.617361,0.16134 -0.679098,0 -0.95691,-0.0726 -0.617362,-0.16134 z m 17.837325,-0.35058 c 0.25466,-0.10191 0.55894,-0.0894 0.67616,0.0278 0.11723,0.11723 -0.0911,0.20061 -0.46302,0.18529 -0.41097,-0.0169 -0.49456,-0.10052 -0.21314,-0.21313 z M 12.856584,103.25049 c -0.438809,-0.55952 -0.426332,-0.572 0.133195,-0.13319 0.339549,0.26629 0.617361,0.54411 0.617361,0.61736 0,0.29035 -0.289697,0.10347 -0.750556,-0.48417 z m -5.6876383,-1.73294 c 0.2425347,-0.0979 0.6394097,-0.0979 0.8819445,0 0.2425347,0.0979 0.044097,0.17794 -0.4409723,0.17794 -0.4850694,0 -0.6835069,-0.0801 -0.4409722,-0.17794 z m -57.6244917,-8.321222 -0.672037,-0.79375 0.79375,0.672038 c 0.745929,0.63155 0.954349,0.915462 0.672037,0.915462 -0.06694,0 -0.42413,-0.357188 -0.79375,-0.79375 z"
         id="path2935" />
      <path
         style="fill-opacity:1;stroke-width:0.352778;stroke:#ffffff;stroke-opacity:1;fill:#fffff7"
         d="m 50.956585,147.34772 c -0.438809,-0.55953 -0.426332,-0.57201 0.133195,-0.1332 0.58764,0.46086 0.774517,0.75056 0.484166,0.75056 -0.07325,0 -0.351066,-0.27781 -0.617361,-0.61736 z m 52.542745,-15.85141 c 0.25466,-0.1019 0.55893,-0.0894 0.67616,0.0278 0.11722,0.11722 -0.0911,0.2006 -0.46302,0.18528 -0.41097,-0.0169 -0.49456,-0.10052 -0.21314,-0.21313 z m -6.541724,-5.29515 c 0.343242,-0.0894 0.819492,-0.0836 1.058333,0.0131 0.238841,0.0966 -0.04199,0.16982 -0.624075,0.16263 -0.582083,-0.007 -0.777501,-0.0863 -0.434258,-0.1757 z M -51.480361,83.759522 c 0.351185,-0.388056 0.717894,-0.705556 0.814908,-0.705556 0.09701,0 -0.110945,0.3175 -0.46213,0.705556 -0.351186,0.388056 -0.717894,0.705556 -0.814908,0.705556 -0.09701,0 0.110944,-0.3175 0.46213,-0.705556 z M 223.8627,81.113689 c 0.65821,-0.679098 1.27611,-1.234723 1.37313,-1.234723 0.097,0 -0.36215,0.555625 -1.02035,1.234723 -0.65821,0.679097 -1.27612,1.234722 -1.37313,1.234722 -0.097,0 0.36214,-0.555625 1.02035,-1.234722 z"
         id="path2933" />
      <path
         style="fill-opacity:1;stroke-width:0.352778;stroke:#ffffff;stroke-opacity:1;fill:#fffff7"
         d="m 75.030332,161.53127 c -4.483188,-0.97261 -8.456574,-2.58317 -12.563468,-5.09243 -8.117001,-4.95939 -16.322552,-13.50732 -21.720857,-22.62715 -2.046238,-3.45689 -1.831541,-3.32915 -6.148588,-3.65804 -6.85859,-0.5225 -21.434299,-2.94821 -28.6199944,-4.76298 -7.4249282,-1.87519 -10.3619514,-3.81167 -10.3619514,-6.83197 0,-2.60664 1.9572006,-4.57201 8.4999056,-8.53538 5.429744,-3.28918 5.445365,-3.076 -0.2096276,-2.86082 -4.87235866,0.18541 -7.3886238,0.56018 -21.6958342,3.23139 -4.062398,0.75847 -7.49285,1.21982 -8.377917,1.12673 -0.844403,-0.0888 -2.360394,-0.67715 -3.4723,-1.34756 -7.083463,-4.27088 -21.706193,-17.130282 -23.156656,-20.364239 -0.965226,-2.152075 -0.618554,-3.591196 1.37971,-5.727499 4.201282,-4.491513 27.231947,-15.700696 46.6799414,-22.71945 14.0103934,-5.056332 26.2275536,-8.12691 43.4900226,-10.930488 8.713643,-1.415171 8.607576,-1.367303 18.775257,-8.474082 11.119764,-7.772247 19.300416,-12.73078 29.103694,-17.640599 14.632841,-7.32863 30.022041,-12.231808 38.655781,-12.316177 2.98651,-0.02919 3.28811,0.03499 4.49829,0.957093 1.35917,1.035639 2.35713,2.592617 2.35129,3.668411 -0.008,1.396985 -1.87217,4.475224 -6.05848,10.001939 -11.42804,15.087138 -17.03255,24.719269 -15.08381,25.923652 0.20553,0.127032 4.37272,0.935884 9.26041,1.797452 24.00428,4.231312 49.93099,9.945445 82.56454,18.196857 l 16.88059,4.268269 1.11107,-0.647827 c 0.61109,-0.356306 3.17482,-2.344099 5.69718,-4.417318 17.27914,-14.202336 38.14099,-24.559867 54.30083,-26.959371 6.39401,-0.949419 8.10472,-0.660428 9.84555,1.663218 1.36444,1.821247 1.43899,2.534543 0.47963,4.589177 -0.8742,1.872209 -1.82248,3.056463 -10.59753,13.234578 -5.99787,6.956888 -10.08769,12.166505 -13.31952,16.966403 -3.37323,5.009882 -4.31528,6.943009 -4.32451,8.873995 -0.0182,3.802867 4.70117,10.646356 18.22911,26.433836 7.72803,9.01883 9.50688,11.29936 10.30657,13.2133 0.52044,1.24558 0.51645,1.4749 -0.0532,3.05906 -0.57774,1.60662 -0.57905,1.75316 -0.0212,2.36954 0.32702,0.36135 0.59459,0.84295 0.59459,1.0702 0,1.30123 -13.12633,-0.75204 -21.96642,-3.43607 -11.78304,-3.57756 -22.86307,-9.25168 -35.582,-18.22163 -4.47252,-3.15422 -5.97412,-4.03931 -6.65713,-3.92393 -0.48507,0.082 -4.45382,1.17999 -8.81945,2.4401 -4.36562,1.26011 -11.19187,3.1219 -15.16944,4.13731 -12.03453,3.07223 -17.63889,4.66601 -17.63889,5.01619 0,0.18302 1.07156,1.90795 2.38125,3.83317 4.73292,6.95733 4.74001,6.97172 4.58446,9.29758 -0.1203,1.79903 -0.28903,2.21483 -1.24556,3.06949 -1.59133,1.42185 -3.4264,1.82695 -6.23992,1.37749 -6.49395,-1.03741 -16.15523,-5.10454 -24.41269,-10.27705 l -3.94217,-2.46939 -4.87727,0.71304 c -17.4008,2.54395 -27.03265,3.22812 -55.252001,3.92466 -14.2382,0.35144 -17.753955,0.54976 -18.043215,1.01779 -0.194938,0.31542 1.26794,6.38624 3.736855,15.50763 1.394474,5.15189 2.065369,8.2389 1.933656,8.89745 -0.336839,1.68421 -1.936916,3.86599 -3.232125,4.40717 -1.47169,0.6149 -3.507031,0.60148 -6.476418,-0.0427 z m 3.882877,-7.30343 c -1.486962,-4.54581 -6.392178,-25.10909 -6.392178,-26.79681 v -0.86994 l 19.314583,-0.23699 c 31.847226,-0.39077 41.621566,-1.02601 60.942366,-3.96073 l 5.99722,-0.91095 5.08654,3.39725 c 6.08045,4.06107 9.1858,5.59621 15.6593,7.74121 5.27622,1.74829 7.65277,2.27637 7.65277,1.70049 0,-0.19709 -0.70804,-1.36832 -1.57343,-2.60273 -2.17482,-3.10224 -3.44748,-5.35098 -4.71768,-8.33589 -1.41775,-3.33168 -1.68307,-4.75778 -0.99188,-5.33141 0.29261,-0.24286 5.58318,-1.68955 11.75682,-3.21487 12.2367,-3.02333 23.74806,-6.11922 32.07964,-8.62758 2.93295,-0.88301 5.53085,-1.60548 5.7731,-1.60548 0.24225,0 2.58563,1.61058 5.2075,3.57907 12.98046,9.74567 27.90161,17.3998 40.09612,20.5682 3.28183,0.8527 10.76241,2.10828 11.02088,1.84981 0.0741,-0.0741 -1.2561,-1.71088 -2.95606,-3.63723 -10.59846,-12.00987 -20.75744,-25.31181 -23.56981,-30.861765 -1.24479,-2.456463 -1.95337,-5.455836 -1.69252,-7.164342 0.7791,-5.103082 7.08766,-14.204156 22.8863,-33.017076 3.98078,-4.740285 4.70405,-5.902868 3.87115,-6.222485 -1.65257,-0.634149 -13.39109,2.684957 -22.0842,6.244382 -11.63172,4.762645 -25.77984,13.931981 -36.93537,23.937655 l -3.6336,3.259074 -9.94834,-2.658829 c -33.86995,-9.052211 -67.56161,-16.539768 -96.16211,-21.370851 -6.86577,-1.159736 -12.56652,-2.191915 -12.66833,-2.293726 -0.58448,-0.584479 3.4385,-10.06589 6.74746,-15.902498 2.81338,-4.962468 6.78921,-10.719148 11.73404,-16.989948 5.37351,-6.814435 5.44881,-7.184225 1.31943,-6.479661 -19.16514,3.27 -41.333221,13.939899 -66.142696,31.835683 -6.448538,4.651516 -7.255662,4.981134 -14.93725,6.100153 -20.103183,2.928538 -40.5079383,8.685191 -58.384723,16.471677 -12.945509,5.638599 -28.254607,13.447106 -29.994062,15.298671 -0.618726,0.658604 -0.686509,0.940601 -0.368786,1.534269 0.859809,1.606572 13.595688,12.439107 18.700219,15.905537 2.157328,1.46501 2.266149,1.49697 4.555128,1.33787 1.289751,-0.0896 5.354292,-0.74708 9.032313,-1.46095 9.6683689,-1.87656 17.1495051,-2.76376 22.1316799,-2.62462 l 4.1572851,0.1161 1.503528,1.50449 c 1.351266,1.35213 1.503529,1.67579 1.503529,3.19591 0,2.44752 -1.281705,3.82673 -7.2574084,7.80956 -2.7768339,1.85077 -5.1075944,3.55345 -5.1794658,3.78372 -0.4307134,1.38 16.8746002,4.82231 32.5271282,6.47018 3.870614,0.40749 7.139735,0.80409 7.264714,0.88133 0.124978,0.0772 1.540125,2.22428 3.14477,4.77121 3.880281,6.15885 6.582135,9.71003 10.416865,13.69139 5.01771,5.20957 10.147456,8.78646 15.53644,10.83331 2.83766,1.0778 8.402278,2.28101 8.575343,1.85419 0.0645,-0.15907 -0.207415,-1.28183 -0.604262,-2.49503 z M 2.3797403,91.47304 c -2.23512948,-0.406467 -4.6151448,-2.271056 -5.8152666,-4.555892 -0.8807521,-1.67681 -0.9934928,-2.225114 -0.8809073,-4.284268 0.142247,-2.601605 0.9174903,-3.910954 3.60212223,-6.083808 1.21413414,-0.98268 1.56131687,-1.078992 3.85905737,-1.070518 2.7223121,0.01005 4.1852886,0.555491 5.9967849,2.235824 2.6625301,2.469748 3.2741161,6.484642 1.4376011,9.437402 -1.9969691,3.210733 -5.1547254,4.874941 -8.1993917,4.32126 z m 3.1575729,-5.914373 c 1.1348896,-0.918975 1.112146,-3.403286 -0.039691,-4.335988 -0.9675671,-0.783487 -2.7552262,-0.825281 -3.8064299,-0.08899 -1.39062185,0.97403 -0.96294582,4.2822 0.6270589,4.850455 1.1043744,0.394691 2.4211281,0.220652 3.2190621,-0.425479 z"
         id="path2931" />
    </g>
  </g>
</svg>
