<?xml version="1.0" encoding="UTF-8" standalone="no"?>
<svg
   xmlns:dc="http://purl.org/dc/elements/1.1/"
   xmlns:cc="http://creativecommons.org/ns#"
   xmlns:rdf="http://www.w3.org/1999/02/22-rdf-syntax-ns#"
   xmlns:svg="http://www.w3.org/2000/svg"
   xmlns="http://www.w3.org/2000/svg"
   xmlns:sodipodi="http://sodipodi.sourceforge.net/DTD/sodipodi-0.dtd"
   xmlns:inkscape="http://www.inkscape.org/namespaces/inkscape"
   width="320.54092mm"
   height="379.61725mm"
   viewBox="0 0 320.54092 379.61725"
   version="1.1"
   id="svg8"
   inkscape:version="1.0.2 (e86c8708, 2021-01-15)"
   sodipodi:docname="penguin-lines-transparent.svg">
  <defs
     id="defs2" />
  <sodipodi:namedview
     id="base"
     pagecolor="#ffffff"
     bordercolor="#666666"
     borderopacity="1.0"
     inkscape:pageopacity="1"
     inkscape:pageshadow="2"
     inkscape:zoom="0.62360709"
     inkscape:cx="483.97952"
     inkscape:cy="736.59651"
     inkscape:document-units="mm"
     inkscape:current-layer="g489"
     inkscape:document-rotation="0"
     showgrid="false"
     inkscape:window-width="1252"
     inkscape:window-height="943"
     inkscape:window-x="0"
     inkscape:window-y="23"
     inkscape:window-maximized="0"
     inkscape:pagecheckerboard="true" />
  <metadata
     id="metadata5">
    <rdf:RDF>
      <cc:Work
         rdf:about="">
        <dc:format>image/svg+xml</dc:format>
        <dc:type
           rdf:resource="http://purl.org/dc/dcmitype/StillImage" />
        <dc:title></dc:title>
      </cc:Work>
    </rdf:RDF>
  </metadata>
  <g
     inkscape:label="Layer 1"
     inkscape:groupmode="layer"
     id="layer1"
     transform="translate(49.533604,63.797908)">
    <g
       id="g489"
       transform="matrix(1.7563941,0,0,1.7563941,-1825.895,-1723.3466)"
       style="fill:#ffffff;stroke:#000000">
      <path
         d="m 1182.2587,1055.2517 c -19.546,-47.229 -30.694,-49.915 -32.962,-49.92 -18.084,-66.16895 -50.279,-59.80695 -50.279,-59.80695 -21.834,0.63 -34.957,26.35 -42.84,58.03295 -1.586,-0.153 -12.836,0.701 -33.201,49.909 -20.162,48.716 -7.203,73.729 -4.826,77.617 0,0 0.447,0.824 0.814,0.81 0.366,-0.016 0.961,-1.129 0.961,-1.129 1.229,-1.519 15.764,-19.855 25.52,-47.562 -1.301,23.23 -1.02,40.002 -1.018,40.019 0,0 0.922,10.911 37.742,14.002 -7.039,4.354 -16.864,6.845 -16.864,6.845 l 4.574,8.327 7.988,-7.635 -9.431,10.009 5.697,5.488 8.398,-10.358 -4.177,6.707 7.45,3.022 c 4.23,-4.679 9.707,-14.206 12.775,-21.639 1.583,0.025 3.209,0.038 4.887,0.038 3.719,0 7.193,-0.062 10.448,-0.178 2.147,7.085 5.576,15.604 9.571,20.024 l 8.326,-2.616 -1.666,-6.659 6.186,10.227 7.908,-5.358 -9.429,-10.008 7.987,7.635 4.573,-8.327 c 0,0 -8.968,-2.272 -15.905,-6.272 29.787,-3.82 29.795,-13.453 29.795,-13.453 0.034,-12.914 -0.225,-24.887 -0.734,-35.997 9.732,26.553 23.582,44.023 24.779,45.503 0,0 0.596,1.113 0.963,1.128 0.367,0.016 0.813,-0.807 0.813,-0.807 2.381,-3.888 15.34,-28.905 -4.823,-77.618 z"
         id="path491"
         inkscape:connector-curvature="0"
         style="opacity:1;fill:none;stroke:#ffffff;stroke-opacity:1" />
      <path
         d="m 1115.0747,960.04675 c -8.918,-0.535 -11.684,7.314 -12.397,8.266 -0.713,0.951 -1.544,-0.475 -1.544,-0.475 0,0 -10.008,-11.357 -21.556,-2.973 -17.363,12.604 -39.646,152.54595 -16.858,161.13995 20.812,7.849 42.219,6.66 42.219,6.66 43.764,0 45.666,-9.515 45.666,-9.515 4.041,-162.20895 -35.53,-163.10295 -35.53,-163.10295 z m -4.715,22.349 c 2.168,-0.092 4.024,2.424 4.162,5.616 0.132,3.194 -1.516,5.853 -3.674,5.948 -2.164,0.091 -4.027,-2.43 -4.16,-5.62 -0.133,-3.19 1.511,-5.855 3.672,-5.944 z m -22.723,7.049 c -0.945,-3.14 0.059,-6.211 2.234,-6.867 2.174,-0.648 4.7,1.36 5.645,4.502 0.943,3.135 -0.056,6.209 -2.232,6.864 -2.176,0.648 -4.706,-1.367 -5.647,-4.499 z m 25.34,36.46095 c 0,0 -14.794,-5.826 -20.695,-22.881 0,0 12.011,-4.93695 22.951,-1.131 0,0 4.022,10.563 -2.256,24.012 z"
         id="path493"
         inkscape:connector-curvature="0"
         style="fill:none;stroke:#ffffff;stroke-width:0.99977562;stroke-miterlimit:4;stroke-dasharray:none;stroke-opacity:1" />
    </g>
  </g>
</svg>
